<?xml version="1.0" encoding="UTF-8" standalone="no"?>
<svg width="46px" height="47px" viewBox="0 0 46 47" version="1.1" xmlns="http://www.w3.org/2000/svg" xmlns:xlink="http://www.w3.org/1999/xlink" xmlns:sketch="http://www.bohemiancoding.com/sketch/ns">
    <!-- Generator: Sketch 3.3.3 (12072) - http://www.bohemiancoding.com/sketch -->
    <title>Path</title>
    <desc>Created with Sketch.</desc>
    <defs></defs>
    <g id="01-Home" stroke="none" stroke-width="1" fill="none" fill-rule="evenodd" sketch:type="MSPage">
        <g id="02-mission-statement" sketch:type="MSArtboardGroup" transform="translate(-652.000000, -1236.000000)" stroke="#FFFFFF" stroke-width="2">
            <g id="call" sketch:type="MSLayerGroup" transform="translate(630.000000, 1214.000000)">
                <path d="M57.7490654,67.253704 L57.7487028,67.253704 C55.0506781,67.253704 51.3534208,66.1558233 47.3381159,64.162208 C43.0070604,62.0121314 38.7399528,58.9036392 34.998089,55.1726771 C30.4890913,50.6755612 26.836803,45.2355793 24.7141893,39.8550238 C22.6319511,34.5762043 22.4457887,30.8912886 24.1606585,28.9026154 C24.1896708,28.8689846 24.2211008,28.8374031 24.2543441,28.8079913 C24.6776821,28.4358835 27.6643794,25.8417366 29.5768956,24.1814151 L29.6140072,24.1469406 C30.3817457,23.3859699 31.1982007,23 32.0410085,23 C33.1698295,23 34.1637431,23.7073302 34.717274,24.3692168 C34.7212632,24.3739179 34.7250106,24.3786189 34.7289998,24.3834405 C34.8874796,24.5804033 38.1335953,28.6539408 40.0635189,31.0759562 L40.1012349,31.1195918 C41.3590398,32.4837459 41.3453798,34.6013972 40.0667828,35.94964 C40.0245941,35.9942399 39.9782952,36.0346208 39.928249,36.0704213 C39.6093553,36.2987246 38.2651178,37.2063927 37.1020865,37.9849622 L36.9482004,38.0879036 L37.0080383,38.2628075 C37.8715174,40.7860768 40.2755506,44.1848299 43.439223,47.3546771 C44.6354976,48.5534499 48.7872812,52.5154877 51.9880652,53.1715883 L52.146545,53.2041342 L52.2370876,53.0705756 C52.713615,52.3681875 53.9947506,50.48342 54.1961444,50.2017174 C54.211255,50.1805023 54.2273327,50.1600105 54.2440147,50.1401213 C55.0478977,49.1885765 56.0987481,49.0465801 56.6534878,49.0465801 C57.3681579,49.0465801 58.0495847,49.2832007 58.4319429,49.6641079 L58.4546692,49.6842381 C61.1439902,51.7657273 65.325995,55.0052467 65.824886,55.3996544 C65.858371,55.4261733 65.8901637,55.4547413 65.9199013,55.4854791 C67.2738095,56.8839872 67.3595167,58.8327615 66.150791,60.4793415 C66.1273394,60.5296068 66.099415,60.5777023 66.0676224,60.6232665 C65.9471004,60.7986526 64.8252907,62.4114813 63.2873961,63.9650041 C61.1269455,66.1471444 59.2635084,67.253704 57.7490654,67.253704 L57.7490654,67.253704 Z" id="Path" sketch:type="MSShapeGroup"></path>
            </g>
        </g>
    </g>
</svg>